<svg width="141" height="23" viewBox="0 0 141 23" fill="none" xmlns="http://www.w3.org/2000/svg">
<path d="M14.1189 8.41297C13.57 7.6921 12.8698 7.123 12.037 6.70566C11.1854 6.28831 10.1823 6.09861 9.0467 6.09861C7.68402 6.09861 6.51059 6.36419 5.52643 6.89536C4.82617 7.27476 4.23946 7.80592 3.74738 8.46988C3.74738 8.28017 3.7663 8.09048 3.7663 7.86283C3.7663 7.57828 3.7663 7.27476 3.7663 6.99021V0.179932H0.113558V18.3913C0.113558 18.7707 0.113558 19.1501 0.113558 19.4915C0.113558 19.852 0.0946307 20.1555 0.0946307 20.459C0.0757046 20.7436 0.0757052 21.0091 0.056779 21.2178C0.0378529 21.4265 0.0378534 21.5972 0.0189273 21.711L0 22.0335H3.52026L3.57704 21.8059C3.59597 21.749 3.59597 21.711 3.59597 21.6541C3.59597 21.5972 3.61489 21.5213 3.61489 21.4075C3.63382 21.1988 3.65274 20.9902 3.67167 20.7246C3.6906 20.4969 3.6906 20.2314 3.70953 19.9847C3.87986 20.1934 4.05019 20.4021 4.23946 20.5918C4.6369 20.9712 5.07221 21.2937 5.54536 21.5403C6.01851 21.7869 6.54845 21.9766 7.0973 22.1094C7.64616 22.2422 8.23287 22.2991 8.81958 22.2991C9.99301 22.2991 11.015 22.0904 11.8856 21.6921C12.7562 21.2937 13.4754 20.7056 14.0432 19.9847C14.611 19.2639 15.0274 18.3913 15.2923 17.4048C15.5573 16.4184 15.6898 15.3371 15.6898 14.1609C15.6898 13.0227 15.5573 11.9604 15.3113 10.9739C15.0652 9.98749 14.6678 9.13383 14.1189 8.41297ZM5.01543 18.4102C4.63691 18.0119 4.33409 17.4807 4.08805 16.8167C3.86093 16.1528 3.72845 15.2991 3.72845 14.2747C3.72845 13.2124 3.86093 12.3588 4.08805 11.6758C4.33409 10.9929 4.63691 10.4428 5.01543 10.0444C5.39395 9.62706 5.82925 9.36147 6.32133 9.19074C6.81341 9.02001 7.32442 8.92516 7.87328 8.92516C9.29274 8.92516 10.258 9.38044 10.9204 10.2531C11.5828 11.1447 11.9424 12.4346 11.9424 14.1609C11.9424 16.02 11.5639 17.3669 10.8447 18.2205C10.1255 19.0742 9.16025 19.5105 7.83542 19.5105C7.30549 19.5105 6.79449 19.4346 6.28348 19.2639C5.81033 19.0931 5.39395 18.8086 5.01543 18.4102Z" fill="white"/>
<path d="M22.0298 3.38696V0.143066H18.396V3.38696H18.6988H22.0298Z" fill="white"/>
<path d="M18.396 22.0155H18.6988H22.0677V6.45996H18.396V22.0155Z" fill="white"/>
<path d="M31.6637 19.3788C31.3608 19.4168 31.0769 19.4547 30.8309 19.4547C30.2631 19.4547 29.8846 19.303 29.6386 19.0374C29.3925 18.7718 29.2411 18.2975 29.2411 17.5577V9.22982H32.6857V6.47915H29.2411V2.8938H25.5884V6.47915V9.22982V18.2217C25.5884 19.5116 25.8912 20.536 26.5536 21.2379C27.216 21.9398 28.1623 22.2623 29.3168 22.2623C29.9225 22.2623 30.5092 22.2244 31.058 22.1674C31.6069 22.0916 32.1368 21.9967 32.6289 21.8639L32.8371 21.807V19.2081L32.4964 19.265C32.2882 19.284 31.9854 19.3409 31.6637 19.3788Z" fill="white"/>
<path d="M62.2297 19.3788C61.9269 19.4168 61.643 19.4547 61.397 19.4547C60.8292 19.4547 60.4507 19.303 60.2235 19.0374C59.9775 18.7718 59.8261 18.2975 59.8261 17.5577V9.22982H63.2706V6.47915H59.8261V2.8938H56.1733V6.47915V9.22982V18.2217C56.1733 19.5116 56.4762 20.536 57.1386 21.2379C57.801 21.9398 58.7473 22.2623 59.9018 22.2623C60.5074 22.2623 61.0941 22.2244 61.643 22.1674C62.1919 22.0916 62.7218 21.9967 63.2139 21.8639L63.4221 21.807V19.2081L63.0814 19.265C62.8353 19.284 62.5515 19.3409 62.2297 19.3788Z" fill="white"/>
<path d="M53.2775 15.3383C52.9179 14.7882 52.4637 14.3329 51.877 13.9914C51.3092 13.65 50.6847 13.3844 49.9655 13.1757C49.2652 12.967 48.5649 12.7963 47.8647 12.6445C47.2401 12.4928 46.6723 12.36 46.1424 12.2272C45.6314 12.1134 45.215 11.9616 44.8554 11.8099C44.5147 11.6581 44.2687 11.4874 44.0984 11.2787C43.947 11.089 43.8523 10.8614 43.8523 10.5199C43.8523 10.2543 43.9091 10.0267 44.0227 9.818C44.1362 9.62829 44.3065 9.4386 44.5715 9.28684C45.0636 8.98331 45.8585 8.81258 46.9373 8.81258C47.3726 8.81258 47.77 8.85052 48.1486 8.90743C48.5271 8.96434 48.8488 9.07816 49.1138 9.21095C49.3977 9.36271 49.6059 9.53344 49.7951 9.78005C49.9655 10.0077 50.0979 10.3112 50.1737 10.6717L50.2304 10.9372L53.5236 10.4819L53.4668 10.1784C53.3154 9.45756 53.0504 8.83155 52.6719 8.31936C52.2934 7.80717 51.8202 7.37085 51.2524 7.04836C50.6847 6.72587 50.0412 6.47926 49.3031 6.3275C48.5839 6.17574 47.789 6.09985 46.9562 6.09985C45.9342 6.09985 45.0068 6.19471 44.2119 6.42235C43.417 6.63102 42.7357 6.93454 42.1679 7.33291C41.6001 7.73128 41.1837 8.22451 40.8809 8.81258C40.597 9.40066 40.4456 10.0646 40.4456 10.7855C40.4456 11.5443 40.597 12.2082 40.9377 12.7584C41.2594 13.2706 41.6758 13.7069 42.2057 14.0483C42.7168 14.3898 43.3035 14.6364 43.928 14.8451C44.5526 15.0348 45.1961 15.1865 45.8585 15.3193C46.5209 15.4711 47.1455 15.5849 47.7133 15.7177C48.281 15.8315 48.7731 15.9833 49.1895 16.154C49.5869 16.3247 49.8898 16.5334 50.0979 16.78C50.2872 17.0077 50.3818 17.2732 50.4008 17.6526C50.4008 18.0321 50.3251 18.3166 50.1737 18.5442C50.0222 18.7909 49.7951 18.9806 49.4923 19.1513C49.1895 19.322 48.811 19.4358 48.3757 19.5117C47.9404 19.5876 47.4483 19.6255 46.9373 19.6255C46.4074 19.6255 45.9342 19.5876 45.48 19.5307C45.0447 19.4738 44.6661 19.36 44.3444 19.2082C44.0227 19.0564 43.7577 18.8478 43.5495 18.5632C43.3413 18.2976 43.171 17.9372 43.0764 17.4629L43.0196 17.1974L39.7832 17.7665L39.8589 18.07C40.0482 18.8478 40.3321 19.5307 40.7295 20.0619C41.127 20.593 41.619 21.0293 42.2057 21.3708C42.7925 21.6933 43.4927 21.9209 44.2687 22.0537C45.0447 22.1865 45.9342 22.2624 46.9373 22.2624C48.0161 22.2624 48.9813 22.1486 49.833 21.9399C50.6847 21.7123 51.4038 21.4087 52.0095 20.9914C52.6151 20.574 53.0694 20.0619 53.3911 19.4358C53.7128 18.8288 53.8643 18.1459 53.8643 17.3871C53.8264 16.6093 53.6371 15.9074 53.2775 15.3383Z" fill="white"/>
<path d="M80.8904 20.346C80.8904 20.0235 80.8715 19.6631 80.8715 19.3027C80.8715 18.9422 80.8715 18.5818 80.8715 18.2593V6.45988H77.162V14.7688C77.162 15.4517 77.0674 16.0777 76.8592 16.6279C76.6699 17.197 76.386 17.6712 76.0453 18.0696C75.7047 18.468 75.2883 18.7715 74.7962 18.9991C74.3041 19.2268 73.7742 19.3406 73.1686 19.3406C72.5062 19.3406 71.9762 19.2268 71.5599 19.0371C71.1245 18.8284 70.8028 18.5628 70.5378 18.2024C70.2729 17.842 70.0836 17.4056 69.9701 16.8935C69.8565 16.3623 69.7997 15.7932 69.7997 15.1482V6.44092H69.5158H66.147V15.9449C66.147 16.8176 66.2416 17.6143 66.4498 18.3731C66.658 19.1509 66.9797 19.8149 67.4529 20.4029C67.926 20.991 68.5317 21.4463 69.2887 21.7688C70.0458 22.1102 70.9542 22.262 71.9952 22.262C73.3011 22.262 74.4556 21.9775 75.4019 21.4083C76.1589 20.9531 76.8024 20.2891 77.3513 19.4165C77.3702 19.72 77.3702 20.0235 77.3891 20.327C77.408 20.6495 77.427 21.1238 77.4648 21.7119L77.4837 21.9775H80.9851L80.9661 21.6739C80.9283 21.1428 80.9094 20.6875 80.8904 20.346Z" fill="white"/>
<path d="M98.946 20.4599C98.946 20.1753 98.927 19.8528 98.927 19.4924C98.927 19.1509 98.927 18.7905 98.927 18.4111V0.161865H95.2554V6.78243C95.2554 7.04801 95.2554 7.31359 95.2554 7.59814C95.2554 7.86373 95.2554 8.12931 95.2554 8.35695C95.2554 8.37592 95.2554 8.39489 95.2554 8.39489C94.7822 7.80682 94.2334 7.29462 93.571 6.93419C92.6246 6.40303 91.508 6.13745 90.2399 6.13745C89.0665 6.13745 88.0445 6.32715 87.1739 6.74449C86.3033 7.14286 85.5652 7.71196 84.9974 8.4518C84.4296 9.17266 83.9943 10.0453 83.7294 11.0507C83.4455 12.0372 83.313 13.1184 83.313 14.2946C83.313 15.4328 83.4455 16.4951 83.6915 17.4626C83.9565 18.4301 84.3539 19.2837 84.9028 20.0046C85.4516 20.7255 86.1519 21.2756 86.9847 21.674C87.8174 22.0723 88.8205 22.262 89.9371 22.262C91.3377 22.262 92.53 22.0154 93.4763 21.5032C94.1766 21.1238 94.7822 20.6116 95.2932 19.9477C95.3122 20.1943 95.3122 20.4599 95.3311 20.6875C95.35 20.9721 95.3879 21.3135 95.4636 21.7688L95.5014 22.0154H99.0027L98.9838 21.7119C98.9838 21.1807 98.946 20.7634 98.946 20.4599ZM91.1295 19.5114C89.7289 19.5114 88.7637 19.0751 88.1013 18.2214C87.4389 17.3488 87.0793 16.0588 87.0793 14.3136C87.0793 12.4545 87.4578 11.0886 88.1581 10.235C88.8583 9.36237 89.8236 8.94502 91.1484 8.92605C91.6973 8.92605 92.2272 9.00194 92.7193 9.17267C93.2114 9.3434 93.6467 9.60898 94.0252 10.0073C94.4037 10.4057 94.7065 10.9369 94.9526 11.6198C95.1797 12.2838 95.3121 13.1374 95.3121 14.1808C95.3121 15.2241 95.1797 16.0778 94.9526 16.7417C94.7065 17.4247 94.3848 17.9748 94.0063 18.3732C93.6277 18.7715 93.1924 19.0561 92.7003 19.2268C92.1893 19.4165 91.6594 19.5114 91.1295 19.5114Z" fill="white"/>
<path d="M102.201 22.0155H102.503H105.853V6.45996H102.201V22.0155Z" fill="white"/>
<path d="M105.835 3.38696V0.143066H102.201V3.38696H102.503H105.835Z" fill="white"/>
<path d="M114.523 3.38696V0.143066H110.889V3.38696H111.173H114.523Z" fill="white"/>
<path d="M123.191 3.38696V0.143066H119.576V3.38696H119.86H123.191Z" fill="white"/>
<path d="M131.878 3.38696V0.143066H128.263V3.38696H128.547H131.878Z" fill="white"/>
<path d="M140.565 3.38696V0.143066H136.931V3.38696H137.233H140.565Z" fill="white"/>
<path d="M123.152 8.43259C122.49 7.71173 121.638 7.14262 120.635 6.74425C119.613 6.34587 118.383 6.13721 116.982 6.13721C115.62 6.13721 114.427 6.3269 113.405 6.74425C112.383 7.14262 111.532 7.71173 110.85 8.43259C110.169 9.15345 109.677 10.0261 109.336 11.0125C108.996 11.999 108.844 13.0613 108.844 14.1995C108.844 15.3756 109.015 16.4759 109.374 17.4624C109.734 18.4488 110.245 19.3214 110.926 20.0423C111.607 20.7632 112.459 21.3133 113.462 21.7117C114.465 22.11 115.62 22.2997 116.888 22.2997C118.232 22.2997 119.405 22.11 120.427 21.7117C121.449 21.3133 122.301 20.7632 123.001 20.0423C123.682 19.3214 124.212 18.4678 124.553 17.4813C124.894 16.4949 125.064 15.4136 125.064 14.2185C125.064 13.0613 124.913 11.999 124.61 11.0125C124.307 10.0261 123.815 9.15345 123.152 8.43259ZM121.241 14.2185C121.241 15.167 121.146 15.9827 120.938 16.6466C120.73 17.3106 120.446 17.8607 120.086 18.2781C119.708 18.6954 119.273 18.9989 118.724 19.2076C118.175 19.4163 117.55 19.5111 116.831 19.5111C116.188 19.5111 115.62 19.3973 115.109 19.2076C114.598 18.9989 114.162 18.6954 113.803 18.2781C113.443 17.8607 113.159 17.3106 112.951 16.6466C112.743 15.9827 112.629 15.167 112.629 14.2374C112.629 12.3784 113.027 11.0694 113.765 10.2347C114.503 9.40006 115.563 8.98272 117.02 8.98272C117.721 8.98272 118.326 9.07757 118.856 9.28624C119.367 9.47595 119.802 9.77946 120.143 10.1968C120.484 10.6141 120.768 11.1453 120.957 11.8093C121.146 12.4542 121.241 13.27 121.241 14.2185Z" fill="white"/>
<path d="M140.413 15.3383C140.054 14.7882 139.599 14.3329 139.013 13.9914C138.445 13.65 137.82 13.3844 137.101 13.1757C136.401 12.967 135.701 12.7963 135 12.6445C134.376 12.4928 133.808 12.36 133.278 12.2272C132.767 12.1134 132.351 11.9616 131.991 11.8099C131.65 11.6581 131.404 11.4874 131.234 11.2787C131.083 11.089 130.988 10.8614 130.988 10.5199C130.988 10.2543 131.045 10.0267 131.158 9.818C131.272 9.62829 131.442 9.4386 131.707 9.28684C132.199 8.98331 132.994 8.81258 134.073 8.81258C134.508 8.81258 134.906 8.85052 135.284 8.90743C135.644 8.96434 135.985 9.07816 136.25 9.21095C136.533 9.36271 136.742 9.53344 136.931 9.78005C137.101 10.0077 137.234 10.3112 137.309 10.6717L137.366 10.9372L140.659 10.4819L140.603 10.1784C140.451 9.45756 140.186 8.83155 139.808 8.31936C139.429 7.80717 138.956 7.37085 138.388 7.04836C137.82 6.72587 137.177 6.47926 136.439 6.3275C135.72 6.17574 134.925 6.09985 134.092 6.09985C133.07 6.09985 132.143 6.19471 131.348 6.42235C130.553 6.63102 129.871 6.93454 129.304 7.33291C128.736 7.73128 128.319 8.22451 128.017 8.81258C127.733 9.40066 127.581 10.0646 127.581 10.7855C127.581 11.5443 127.733 12.2082 128.073 12.7584C128.395 13.2706 128.812 13.7069 129.341 14.0483C129.853 14.3898 130.439 14.6364 131.064 14.8451C131.688 15.0348 132.332 15.1865 132.994 15.3193C133.657 15.4711 134.281 15.5849 134.849 15.7177C135.417 15.8315 135.909 15.9833 136.325 16.154C136.723 16.3247 137.025 16.5334 137.234 16.78C137.423 17.0077 137.518 17.2732 137.537 17.6526C137.537 18.0321 137.461 18.3166 137.309 18.5442C137.158 18.7909 136.931 18.9806 136.628 19.1513C136.325 19.322 135.947 19.4358 135.511 19.5117C135.076 19.5876 134.584 19.6255 134.073 19.6255C133.543 19.6255 133.051 19.5876 132.616 19.5307C132.18 19.4738 131.802 19.36 131.48 19.2082C131.158 19.0564 130.893 18.8478 130.685 18.5632C130.477 18.2976 130.307 17.9372 130.212 17.4629L130.155 17.1974L126.919 17.7665L126.995 18.07C127.184 18.8478 127.468 19.5307 127.865 20.0619C128.263 20.612 128.755 21.0483 129.341 21.3708C129.928 21.6933 130.628 21.9209 131.404 22.0537C132.18 22.1865 133.07 22.2624 134.073 22.2624C135.152 22.2624 136.117 22.1486 136.969 21.9399C137.82 21.7123 138.54 21.4087 139.145 20.9914C139.751 20.574 140.205 20.0619 140.527 19.4358C140.849 18.8288 141 18.1459 141 17.3871C140.943 16.6093 140.773 15.9074 140.413 15.3383Z" fill="white"/>
</svg>
