<svg width="200" height="31" viewBox="0 0 200 31" fill="none" xmlns="http://www.w3.org/2000/svg">
<path d="M20.0268 11.5716C19.2483 10.563 18.255 9.76677 17.0738 9.18287C15.8658 8.59896 14.4429 8.33355 12.8322 8.33355C10.8993 8.33355 9.23489 8.70513 7.83892 9.44828C6.84563 9.9791 6.01342 10.7222 5.31543 11.6512C5.31543 11.3858 5.34228 11.1204 5.34228 10.8019C5.34228 10.4038 5.34228 9.9791 5.34228 9.58098V0.0527344H0.161075V25.5322C0.161075 26.063 0.161075 26.5938 0.161075 27.0716C0.161075 27.5758 0.134228 28.0005 0.134228 28.4252C0.107382 28.8233 0.107383 29.1948 0.0805377 29.4868C0.0536921 29.7788 0.0536929 30.0176 0.0268473 30.1769L0 30.6281H4.99329L5.07382 30.3096C5.10067 30.23 5.10067 30.1769 5.10067 30.0972C5.10067 30.0176 5.12752 29.9115 5.12752 29.7522C5.15436 29.4603 5.1812 29.1683 5.20805 28.7967C5.23489 28.4782 5.2349 28.1067 5.26174 27.7616C5.50335 28.0536 5.74496 28.3455 6.01342 28.6109C6.57718 29.1418 7.19463 29.593 7.86577 29.938C8.53691 30.283 9.28859 30.5484 10.0671 30.7342C10.8456 30.92 11.6778 30.9996 12.5101 30.9996C14.1745 30.9996 15.6242 30.7077 16.8591 30.1503C18.094 29.593 19.1141 28.7702 19.9195 27.7616C20.7248 26.7531 21.3154 25.5322 21.6913 24.152C22.0671 22.7719 22.255 21.2591 22.255 19.6135C22.255 18.021 22.0671 16.5347 21.7181 15.1546C21.3691 13.7745 20.8054 12.5801 20.0268 11.5716ZM7.11409 25.5587C6.57718 25.0014 6.14765 24.2582 5.79866 23.3293C5.47651 22.4003 5.28859 21.206 5.28859 19.7728C5.28859 18.2865 5.47651 17.0921 5.79866 16.1366C6.14765 15.1811 6.57718 14.4115 7.11409 13.8541C7.651 13.2702 8.26845 12.8986 8.96644 12.6598C9.66442 12.4209 10.3893 12.2882 11.1678 12.2882C13.1812 12.2882 14.5503 12.9252 15.4899 14.146C16.4295 15.3935 16.9396 17.1983 16.9396 19.6135C16.9396 22.2145 16.4027 24.099 15.3825 25.2933C14.3624 26.4877 12.9933 27.0981 11.1141 27.0981C10.3624 27.0981 9.63758 26.9919 8.91275 26.7531C8.2416 26.5142 7.651 26.1161 7.11409 25.5587Z" fill="#0F65A2"/>
<path d="M31.2486 4.53853V0H26.0942V4.53853H26.5238H31.2486Z" fill="#0F65A2"/>
<path d="M26.0942 30.6018H26.5238H31.3023V8.83813H26.0942V30.6018Z" fill="#0F65A2"/>
<path d="M44.9128 26.9126C44.4833 26.9657 44.0806 27.0187 43.7316 27.0187C42.9263 27.0187 42.3894 26.8064 42.0404 26.4348C41.6914 26.0633 41.4766 25.3997 41.4766 24.3646V12.7131H46.3625V8.86465H41.4766V3.84839H36.2954V8.86465V12.7131V25.2936C36.2954 27.0984 36.7249 28.5316 37.6645 29.5136C38.6041 30.4956 39.9464 30.9468 41.584 30.9468C42.443 30.9468 43.2753 30.8937 44.0538 30.8141C44.8323 30.708 45.584 30.5753 46.282 30.3895L46.5773 30.3098V26.6737L46.094 26.7533C45.7987 26.7799 45.3692 26.8595 44.9128 26.9126Z" fill="#0F65A2"/>
<path d="M88.2683 26.9126C87.8388 26.9657 87.4361 27.0187 87.0871 27.0187C86.2818 27.0187 85.7449 26.8064 85.4227 26.4348C85.0737 26.0633 84.8589 25.3997 84.8589 24.3646V12.7131H89.7448V8.86465H84.8589V3.84839H79.6777V8.86465V12.7131V25.2936C79.6777 27.0984 80.1073 28.5316 81.0469 29.5136C81.9865 30.4956 83.3287 30.9468 84.9663 30.9468C85.8254 30.9468 86.6576 30.8937 87.4361 30.8141C88.2146 30.708 88.9663 30.5753 89.6643 30.3895L89.9596 30.3098V26.6737L89.4764 26.7533C89.1274 26.7799 88.7247 26.8595 88.2683 26.9126Z" fill="#90CE05"/>
<path d="M75.5706 21.2595C75.0605 20.4898 74.4162 19.8528 73.584 19.3751C72.7787 18.8973 71.8928 18.5258 70.8726 18.2338C69.8793 17.9419 68.886 17.703 67.8928 17.4906C67.0069 17.2783 66.2015 17.0925 65.4498 16.9068C64.725 16.7475 64.1344 16.5352 63.6243 16.3228C63.1411 16.1105 62.7921 15.8716 62.5505 15.5797C62.3357 15.3143 62.2015 14.9958 62.2015 14.5181C62.2015 14.1465 62.282 13.828 62.4431 13.536C62.6042 13.2706 62.8458 13.0052 63.2216 12.7929C63.9196 12.3682 65.0471 12.1294 66.5773 12.1294C67.1948 12.1294 67.7585 12.1824 68.2954 12.2621C68.8324 12.3417 69.2887 12.5009 69.6646 12.6867C70.0673 12.899 70.3626 13.1379 70.631 13.4829C70.8726 13.8014 71.0605 14.2261 71.1679 14.7304L71.2485 15.102L75.9196 14.465L75.8391 14.0403C75.6243 13.0318 75.2485 12.1559 74.7115 11.4393C74.1746 10.7227 73.5035 10.1122 72.6981 9.66104C71.8928 9.20984 70.98 8.86481 69.933 8.65248C68.9129 8.44015 67.7854 8.33398 66.6042 8.33398C65.1545 8.33398 63.8391 8.46669 62.7116 8.78519C61.584 9.07714 60.6176 9.50179 59.8122 10.0592C59.0069 10.6165 58.4163 11.3066 57.9867 12.1294C57.584 12.9521 57.3693 13.8811 57.3693 14.8896C57.3693 15.9513 57.584 16.8802 58.0673 17.6499C58.5236 18.3665 59.1142 18.9769 59.8659 19.4547C60.5908 19.9324 61.423 20.2775 62.3089 20.5694C63.1948 20.8348 64.1075 21.0472 65.0471 21.2329C65.9867 21.4453 66.8726 21.6045 67.678 21.7903C68.4834 21.9495 69.1813 22.1619 69.772 22.4007C70.3357 22.6396 70.7652 22.9316 71.0605 23.2766C71.329 23.5951 71.4632 23.9667 71.4901 24.4975C71.4901 25.0283 71.3827 25.4264 71.1679 25.7449C70.9532 26.09 70.631 26.3554 70.2015 26.5942C69.772 26.8331 69.235 26.9924 68.6176 27.0985C68.0001 27.2047 67.3022 27.2578 66.5773 27.2578C65.8257 27.2578 65.1545 27.2047 64.5102 27.1251C63.8928 27.0454 63.3558 26.8862 62.8995 26.6739C62.4431 26.4615 62.0673 26.1696 61.772 25.7715C61.4767 25.3999 61.2351 24.8956 61.1008 24.2321L61.0203 23.8605L56.4297 24.6567L56.5371 25.0814C56.8055 26.1696 57.2082 27.1251 57.772 27.8682C58.3357 28.6114 59.0337 29.2218 59.8659 29.6995C60.6981 30.1507 61.6914 30.4692 62.7921 30.655C63.8928 30.8408 65.1545 30.947 66.5773 30.947C68.1075 30.947 69.4767 30.7877 70.6847 30.4958C71.8928 30.1773 72.9129 29.7526 73.7719 29.1687C74.631 28.5848 75.2753 27.8682 75.7317 26.9924C76.1881 26.143 76.4028 25.1876 76.4028 24.1259C76.3491 23.0377 76.0807 22.0557 75.5706 21.2595Z" fill="#90CE05"/>
<path d="M114.738 28.2661C114.738 27.8149 114.712 27.3107 114.712 26.8064C114.712 26.3021 114.712 25.7978 114.712 25.3466V8.83806H109.45V20.4631C109.45 21.4185 109.316 22.2944 109.02 23.0641C108.752 23.8603 108.349 24.5238 107.866 25.0812C107.383 25.6386 106.792 26.0632 106.094 26.3817C105.396 26.7002 104.644 26.8595 103.785 26.8595C102.846 26.8595 102.094 26.7002 101.504 26.4348C100.886 26.1429 100.43 25.7713 100.054 25.267C99.678 24.7627 99.4096 24.1523 99.2485 23.4357C99.0874 22.6925 99.0069 21.8963 99.0069 20.9939V8.81152H98.6042H93.8257V22.1086C93.8257 23.3295 93.9599 24.4442 94.2552 25.5059C94.5505 26.594 95.0069 27.523 95.678 28.3458C96.3492 29.1685 97.2082 29.8055 98.2821 30.2567C99.3559 30.7345 100.644 30.9468 102.121 30.9468C103.973 30.9468 105.611 30.5487 106.953 29.7524C108.027 29.1155 108.94 28.1865 109.718 26.9656C109.745 27.3903 109.745 27.8149 109.772 28.2396C109.799 28.6908 109.826 29.3543 109.879 30.1771L109.906 30.5487H114.873L114.846 30.124C114.792 29.3809 114.765 28.7439 114.738 28.2661Z" fill="#90CE05"/>
<path d="M140.349 28.4253C140.349 28.0272 140.322 27.576 140.322 27.0717C140.322 26.594 140.322 26.0897 140.322 25.5589V0.0263672H135.114V9.28919C135.114 9.66077 135.114 10.0323 135.114 10.4305C135.114 10.802 135.114 11.1736 135.114 11.4921C135.114 11.5186 135.114 11.5452 135.114 11.5452C134.443 10.7224 133.664 10.0058 132.725 9.50152C131.382 8.75837 129.798 8.3868 128 8.3868C126.335 8.3868 124.886 8.6522 123.651 9.23611C122.416 9.79347 121.369 10.5897 120.564 11.6248C119.758 12.6334 119.141 13.8543 118.765 15.2609C118.362 16.6411 118.174 18.1539 118.174 19.7995C118.174 21.3919 118.362 22.8782 118.711 24.2318C119.087 25.5854 119.651 26.7798 120.429 27.7883C121.208 28.7969 122.201 29.5666 123.382 30.1239C124.564 30.6813 125.986 30.9467 127.57 30.9467C129.557 30.9467 131.248 30.6017 132.59 29.8851C133.584 29.3542 134.443 28.6376 135.168 27.7087C135.194 28.0537 135.194 28.4253 135.221 28.7438C135.248 29.1419 135.302 29.6196 135.409 30.2566L135.463 30.6017H140.429L140.402 30.177C140.402 29.4339 140.349 28.85 140.349 28.4253ZM129.262 27.0982C127.275 27.0982 125.906 26.4878 124.966 25.2934C124.027 24.0726 123.517 22.2678 123.517 19.826C123.517 17.225 124.053 15.314 125.047 14.1197C126.04 12.8988 127.409 12.3149 129.288 12.2883C130.067 12.2883 130.819 12.3945 131.517 12.6334C132.215 12.8722 132.832 13.2438 133.369 13.8012C133.906 14.3585 134.335 15.1017 134.684 16.0572C135.006 16.9861 135.194 18.1804 135.194 19.6402C135.194 21.1 135.006 22.2943 134.684 23.2232C134.335 24.1787 133.879 24.9484 133.342 25.5058C132.805 26.0631 132.188 26.4613 131.49 26.7001C130.765 26.9655 130.013 27.0982 129.262 27.0982Z" fill="#90CE05"/>
<path d="M144.966 30.6018H145.396H150.148V8.83813H144.966V30.6018Z" fill="#90CE05"/>
<path d="M150.121 4.53853V0H144.966V4.53853H145.396H150.121Z" fill="#0F65A2"/>
<path d="M162.443 4.53853V0H157.289V4.53853H157.691H162.443Z" fill="#377EB1"/>
<path d="M174.738 4.53853V0H169.61V4.53853H170.013H174.738Z" fill="#5F98C1"/>
<path d="M187.06 4.53853V0H181.933V4.53853H182.335H187.06Z" fill="#86B1D0"/>
<path d="M199.382 4.53853V0H194.228V4.53853H194.658H199.382Z" fill="#AECADF"/>
<path d="M174.684 11.5984C173.745 10.5899 172.537 9.79363 171.114 9.23627C169.664 8.67891 167.919 8.38696 165.933 8.38696C164 8.38696 162.309 8.65237 160.859 9.23627C159.409 9.79363 158.201 10.5899 157.235 11.5984C156.268 12.607 155.57 13.8279 155.087 15.208C154.604 16.5881 154.389 18.0744 154.389 19.6669C154.389 21.3124 154.631 22.8518 155.141 24.232C155.651 25.6121 156.376 26.833 157.342 27.8415C158.309 28.8501 159.517 29.6198 160.94 30.1772C162.362 30.7345 164 30.9999 165.799 30.9999C167.705 30.9999 169.369 30.7345 170.819 30.1772C172.268 29.6198 173.476 28.8501 174.47 27.8415C175.436 26.833 176.188 25.6386 176.671 24.2585C177.154 22.8784 177.396 21.3655 177.396 19.6934C177.396 18.0744 177.181 16.5881 176.752 15.208C176.322 13.8279 175.624 12.607 174.684 11.5984ZM171.973 19.6934C171.973 21.0205 171.839 22.1618 171.544 23.0907C171.248 24.0196 170.846 24.7893 170.335 25.3732C169.799 25.9571 169.181 26.3818 168.403 26.6737C167.624 26.9657 166.738 27.0984 165.718 27.0984C164.805 27.0984 164 26.9391 163.275 26.6737C162.55 26.3818 161.933 25.9571 161.423 25.3732C160.913 24.7893 160.51 24.0196 160.215 23.0907C159.919 22.1618 159.758 21.0205 159.758 19.72C159.758 17.119 160.322 15.2876 161.369 14.1198C162.416 12.952 163.919 12.3681 165.986 12.3681C166.98 12.3681 167.839 12.5008 168.591 12.7928C169.315 13.0582 169.933 13.4828 170.416 14.0667C170.899 14.6506 171.302 15.3938 171.57 16.3227C171.839 17.2251 171.973 18.3664 171.973 19.6934Z" fill="#90CE05"/>
<path d="M199.168 21.2595C198.658 20.4898 198.013 19.8528 197.181 19.3751C196.376 18.8973 195.49 18.5258 194.47 18.2338C193.477 17.9419 192.483 17.703 191.49 17.4906C190.604 17.2783 189.799 17.0925 189.047 16.9068C188.322 16.7475 187.732 16.5352 187.221 16.3228C186.738 16.1105 186.389 15.8716 186.148 15.5797C185.933 15.3143 185.799 14.9958 185.799 14.5181C185.799 14.1465 185.879 13.828 186.04 13.536C186.201 13.2706 186.443 13.0052 186.819 12.7929C187.517 12.3682 188.644 12.1294 190.174 12.1294C190.792 12.1294 191.356 12.1824 191.893 12.2621C192.403 12.3417 192.886 12.5009 193.262 12.6867C193.664 12.899 193.96 13.1379 194.228 13.4829C194.47 13.8014 194.658 14.2261 194.765 14.7304L194.846 15.102L199.517 14.465L199.436 14.0403C199.221 13.0318 198.846 12.1559 198.309 11.4393C197.772 10.7227 197.101 10.1122 196.295 9.66104C195.49 9.20984 194.577 8.86481 193.53 8.65248C192.51 8.44015 191.383 8.33398 190.201 8.33398C188.752 8.33398 187.436 8.46669 186.309 8.78519C185.181 9.07714 184.215 9.50179 183.409 10.0592C182.604 10.6165 182.013 11.3066 181.584 12.1294C181.181 12.9521 180.966 13.8811 180.966 14.8896C180.966 15.9513 181.181 16.8802 181.664 17.6499C182.121 18.3665 182.711 18.9769 183.463 19.4547C184.188 19.9324 185.02 20.2775 185.906 20.5694C186.792 20.8348 187.705 21.0472 188.644 21.2329C189.584 21.4453 190.47 21.6045 191.275 21.7903C192.081 21.9495 192.779 22.1619 193.369 22.4007C193.933 22.6396 194.362 22.9316 194.658 23.2766C194.926 23.5951 195.06 23.9667 195.087 24.4975C195.087 25.0283 194.98 25.4264 194.765 25.7449C194.55 26.09 194.228 26.3554 193.799 26.5942C193.369 26.8331 192.832 26.9924 192.215 27.0985C191.597 27.2047 190.899 27.2578 190.174 27.2578C189.423 27.2578 188.725 27.2047 188.107 27.1251C187.49 27.0454 186.953 26.8862 186.497 26.6739C186.04 26.4615 185.664 26.1696 185.369 25.7715C185.074 25.3999 184.832 24.8956 184.698 24.2321L184.617 23.8605L180.027 24.6567L180.134 25.0814C180.403 26.1696 180.805 27.1251 181.369 27.8682C181.933 28.6379 182.631 29.2483 183.463 29.6995C184.295 30.1507 185.289 30.4692 186.389 30.655C187.49 30.8408 188.752 30.947 190.174 30.947C191.705 30.947 193.074 30.7877 194.282 30.4958C195.49 30.1773 196.51 29.7526 197.369 29.1687C198.228 28.5848 198.872 27.8682 199.329 26.9924C199.785 26.143 200 25.1876 200 24.1259C199.919 23.0377 199.678 22.0557 199.168 21.2595Z" fill="#90CE05"/>
</svg>
